# xmcd CD database file
#
# Track frame offsets:
#	150
#	15836
#	30503
#	45838
#	59830
#	78839
#	96717
#	117640
#	138577
#	155023
#	171185
#	187549
#	201082
#	215738
#	229790
#
# Disc length: 3282 seconds
#
# Revision: 0
# Processed by: cddbd v1.5.2PL0 Copyright (c) Steve Scherf et al.
# Submitted via: CDex 1.51
#
DISCID=c90cd00f
DTITLE=Katie Melua - Piece By Piece (Special Bonus Edition)
DYEAR=2006
DGENRE=Jazz
TTITLE0=Shy Boy
TTITLE1=Nine Million Bicycles
TTITLE2=Piece By Piece
TTITLE3=Halfway Up The Hindu Kush
TTITLE4=Blues In The Night
TTITLE5=Spider's Web
TTITLE6=Blue Shoes
TTITLE7=On The Road Again
TTITLE8=Thankyou, Stars
TTITLE9=Just Like Heaven
TTITLE10=I Cried For You
TTITLE11=I Do Believe In Love
TTITLE12=It's Only Pain
TTITLE13=Lucy In The Sky With Diamonds (Acoustic Version)
TTITLE14=Sometimes When I'm Dreaming
EXTD=YEAR: 2006
EXTT0=
EXTT1=
EXTT2=
EXTT3=
EXTT4=
EXTT5=
EXTT6=
EXTT7=
EXTT8=
EXTT9=
EXTT10=
EXTT11=
EXTT12=
EXTT13=
EXTT14=
PLAYORDER=
